<?xml version="1.0" standalone="no"?>
<!DOCTYPE svg PUBLIC "-//W3C//DTD SVG 20010904//EN"
 "http://www.w3.org/TR/2001/REC-SVG-20010904/DTD/svg10.dtd">
<svg version="1.0" xmlns="http://www.w3.org/2000/svg"
 width="64.000000pt" height="64.000000pt" viewBox="0 0 64.000000 64.000000"
 preserveAspectRatio="xMidYMid meet">

<g transform="translate(0.000000,64.000000) scale(0.100000,-0.100000)"
fill="#000000" stroke="none">
<path d="M120 550 c0 -43 -3 -50 -20 -50 -12 0 -30 -16 -46 -41 -29 -46 -29
-96 1 -129 11 -13 15 -41 15 -123 0 -105 0 -107 -23 -107 -42 0 -66 -50 -31
-64 20 -8 588 -8 608 0 35 14 11 64 -31 64 -22 0 -23 4 -23 65 0 37 -4 65 -10
65 -5 0 -10 -11 -10 -25 0 -24 -2 -25 -70 -25 l-69 0 -3 57 -3 58 -85 0 -85 0
-3 -57 c-3 -57 -4 -58 -32 -58 -16 0 -32 -4 -35 -10 -4 -6 8 -10 29 -10 32 0
36 -3 36 -25 0 -24 -2 -25 -70 -25 -68 0 -70 1 -70 25 0 20 5 25 25 25 14 0
25 5 25 10 0 6 -11 10 -25 10 -24 0 -25 2 -25 63 1 60 2 62 33 77 29 14 36 14
60 0 24 -13 30 -13 55 0 24 14 30 14 54 0 25 -13 31 -13 55 0 25 14 31 14 56
0 24 -13 30 -13 54 0 24 14 31 14 60 0 25 -11 32 -21 33 -42 0 -16 5 -28 10
-28 6 0 10 14 10 32 0 17 7 39 15 48 30 33 30 83 1 129 -16 25 -34 41 -46 41
-17 0 -20 7 -20 50 l0 50 -157 -2 -158 -2 148 -3 147 -4 0 -59 0 -60 -180 0
-180 0 0 59 c0 57 1 60 28 64 22 3 20 4 -10 6 l-38 1 0 -50z m0 -85 c19 -23
376 -22 402 1 14 14 20 14 33 4 8 -7 15 -19 15 -26 0 -12 -45 -14 -256 -14
-263 0 -261 0 -231 38 12 16 22 15 37 -3z m20 -79 c0 -30 -22 -49 -52 -44 -18
2 -24 10 -26 36 -3 31 -2 32 37 32 36 0 41 -3 41 -24z m110 -4 c0 -52 -46 -70
-74 -30 -29 42 -21 58 29 58 43 0 45 -1 45 -28z m108 -4 c-3 -30 -6 -33 -38
-33 -32 0 -35 3 -38 33 -3 31 -3 32 38 32 41 0 41 -1 38 -32z m122 14 c0 -26
-28 -62 -49 -62 -25 0 -41 20 -41 52 0 27 2 28 45 28 36 0 45 -3 45 -18z m80
-4 c0 -13 -5 -30 -10 -38 -14 -22 -44 0 -48 34 -3 23 0 26 27 26 26 0 31 -4
31 -22z m-250 -193 l0 -85 -30 0 -30 0 0 85 0 85 30 0 30 0 0 -85z m80 0 l0
-85 -30 0 -30 0 0 85 0 85 30 0 30 0 0 -85z m130 -60 c0 -24 -3 -25 -55 -25
-52 0 -55 1 -55 25 0 24 3 25 55 25 52 0 55 -1 55 -25z m70 -65 c0 -6 -102
-10 -286 -10 -187 0 -283 3 -279 10 8 14 565 14 565 0z"/>
<path d="M169 564 c-11 -14 -10 -19 9 -34 27 -23 28 -33 2 -25 -11 3 -20 2
-20 -4 0 -19 42 -24 59 -6 15 15 14 18 -6 35 -26 21 -30 32 -8 24 8 -4 15 -2
15 4 0 5 -7 13 -16 16 -21 8 -20 8 -35 -10z"/>
<path d="M240 530 c0 -32 4 -49 10 -45 6 3 10 13 10 21 0 8 7 14 15 14 8 0 15
-9 15 -21 0 -11 5 -17 10 -14 6 3 10 24 10 46 0 21 -4 39 -10 39 -5 0 -10 -7
-10 -15 0 -8 -7 -15 -15 -15 -8 0 -15 6 -15 14 0 8 -4 18 -10 21 -6 4 -10 -13
-10 -45z"/>
<path d="M338 569 c-28 -16 -23 -67 7 -81 21 -9 28 -8 45 7 26 24 25 50 -2 69
-26 19 -27 19 -50 5z m52 -44 c0 -15 -27 -28 -41 -19 -13 8 -11 42 4 47 15 5
37 -11 37 -28z"/>
<path d="M420 530 l0 -52 32 32 c25 25 29 36 21 49 -5 9 -20 17 -32 19 -19 3
-21 -1 -21 -48z m35 21 c3 -5 1 -12 -5 -16 -5 -3 -10 1 -10 9 0 18 6 21 15 7z"/>
<path d="M110 250 l0 -50 50 0 50 0 0 50 0 50 -50 0 -50 0 0 -50z m80 0 c0
-27 -3 -30 -30 -30 -27 0 -30 3 -30 30 0 27 3 30 30 30 27 0 30 -3 30 -30z"/>
<path d="M430 250 l0 -50 50 0 50 0 0 50 0 50 -50 0 -50 0 0 -50z m80 0 c0
-27 -3 -30 -30 -30 -27 0 -30 3 -30 30 0 27 3 30 30 30 27 0 30 -3 30 -30z"/>
</g>
</svg>
